<mxfile host="app.diagrams.net" modified="2023-11-29T15:13:20.120Z" agent="Mozilla/5.0 (Windows NT 10.0; Win64; x64) AppleWebKit/537.36 (KHTML, like Gecko) Chrome/118.0.0.0 Safari/537.36 OPR/104.0.0.0" etag="Lm81NZfNvXffIpcgZS97" version="22.1.4" type="github" pages="2">
  <diagram name="Aktuelle Struktur" id="u7RNC7T1MF9CxTaaWfWF">
    <mxGraphModel dx="1970" dy="658" grid="1" gridSize="10" guides="1" tooltips="1" connect="1" arrows="1" fold="1" page="1" pageScale="1" pageWidth="827" pageHeight="1169" math="0" shadow="0">
      <root>
        <mxCell id="0" />
        <mxCell id="1" parent="0" />
        <mxCell id="WJgly0HCDP2uMQnK31IG-88" value="ADRESSEN" style="shape=cylinder3;whiteSpace=wrap;html=1;boundedLbl=1;backgroundOutline=1;size=15;fontStyle=1;verticalAlign=top;" vertex="1" parent="1">
          <mxGeometry x="-790" y="60" width="670" height="970" as="geometry" />
        </mxCell>
        <mxCell id="WJgly0HCDP2uMQnK31IG-92" value="01 xxx Veranstaltungs-Ort-Raum" style="shape=cylinder3;whiteSpace=wrap;html=1;boundedLbl=1;backgroundOutline=1;size=15;fillColor=#ffe6cc;strokeColor=#d79b00;fontStyle=1" vertex="1" parent="1">
          <mxGeometry x="-70" y="540" width="190" height="150" as="geometry" />
        </mxCell>
        <mxCell id="WJgly0HCDP2uMQnK31IG-93" value="06 xxx Veranstaltungs-Referent-Dozent" style="shape=cylinder3;whiteSpace=wrap;html=1;boundedLbl=1;backgroundOutline=1;size=15;fillColor=#ffe6cc;strokeColor=#d79b00;fontStyle=1" vertex="1" parent="1">
          <mxGeometry x="-70" y="710" width="190" height="150" as="geometry" />
        </mxCell>
        <mxCell id="WJgly0HCDP2uMQnK31IG-94" style="edgeStyle=orthogonalEdgeStyle;rounded=0;orthogonalLoop=1;jettySize=auto;html=1;entryX=0.001;entryY=0.484;entryDx=0;entryDy=0;entryPerimeter=0;strokeColor=#d79b00;shape=flexArrow;fillColor=#ffe6cc;startArrow=block;startFill=0;endArrow=none;endFill=0;" edge="1" parent="1" source="WJgly0HCDP2uMQnK31IG-92" target="WJgly0HCDP2uMQnK31IG-2">
          <mxGeometry relative="1" as="geometry" />
        </mxCell>
        <mxCell id="WJgly0HCDP2uMQnK31IG-95" style="edgeStyle=orthogonalEdgeStyle;rounded=0;orthogonalLoop=1;jettySize=auto;html=1;entryX=-0.002;entryY=0.673;entryDx=0;entryDy=0;entryPerimeter=0;shape=flexArrow;fillColor=#ffe6cc;strokeColor=#d79b00;startArrow=block;endArrow=none;endFill=0;" edge="1" parent="1" source="WJgly0HCDP2uMQnK31IG-93" target="WJgly0HCDP2uMQnK31IG-2">
          <mxGeometry relative="1" as="geometry" />
        </mxCell>
        <mxCell id="WJgly0HCDP2uMQnK31IG-97" value="FREE03 - Veranstaltungsteilnehmer" style="shape=cylinder3;whiteSpace=wrap;html=1;boundedLbl=1;backgroundOutline=1;size=15;verticalAlign=top;fontStyle=1" vertex="1" parent="1">
          <mxGeometry x="-650" y="1320" width="520" height="695" as="geometry" />
        </mxCell>
        <mxCell id="WJgly0HCDP2uMQnK31IG-100" style="edgeStyle=orthogonalEdgeStyle;rounded=0;orthogonalLoop=1;jettySize=auto;html=1;entryX=0.145;entryY=1;entryDx=0;entryDy=-4.35;entryPerimeter=0;startArrow=none;startFill=0;shape=flexArrow;fillColor=#ffe6cc;strokeColor=#d79b00;endArrow=block;endFill=0;" edge="1" parent="1" source="WJgly0HCDP2uMQnK31IG-97" target="WJgly0HCDP2uMQnK31IG-2">
          <mxGeometry relative="1" as="geometry">
            <Array as="points">
              <mxPoint x="426" y="1397" />
            </Array>
          </mxGeometry>
        </mxCell>
        <mxCell id="WJgly0HCDP2uMQnK31IG-101" value="Datensatzdetails&lt;br&gt;&lt;br&gt;&lt;div style=&quot;text-align: left;&quot;&gt;ID&lt;/div&gt;&lt;div style=&quot;text-align: left;&quot;&gt;Erfasst am&lt;/div&gt;&lt;div style=&quot;text-align: left;&quot;&gt;Erfasst von&lt;/div&gt;&lt;div style=&quot;text-align: left;&quot;&gt;&lt;br&gt;&lt;/div&gt;&lt;div style=&quot;text-align: left;&quot;&gt;Geändert am&lt;/div&gt;&lt;div style=&quot;text-align: left;&quot;&gt;Geändert von&lt;/div&gt;" style="rounded=1;whiteSpace=wrap;html=1;verticalAlign=top;" vertex="1" parent="1">
          <mxGeometry x="-610" y="1450" width="130" height="140" as="geometry" />
        </mxCell>
        <mxCell id="WJgly0HCDP2uMQnK31IG-102" value="" style="group" vertex="1" connectable="0" parent="1">
          <mxGeometry x="760" y="40" width="860" height="110" as="geometry" />
        </mxCell>
        <mxCell id="WJgly0HCDP2uMQnK31IG-39" value="&lt;b&gt;Infos&lt;/b&gt;" style="rounded=0;whiteSpace=wrap;html=1;verticalAlign=top;" vertex="1" parent="WJgly0HCDP2uMQnK31IG-102">
          <mxGeometry width="860" height="110" as="geometry" />
        </mxCell>
        <mxCell id="WJgly0HCDP2uMQnK31IG-40" value="Beziehung" style="rounded=1;whiteSpace=wrap;html=1;fillColor=#ffe6cc;strokeColor=#d79b00;" vertex="1" parent="WJgly0HCDP2uMQnK31IG-102">
          <mxGeometry x="20" y="30" width="120" height="60" as="geometry" />
        </mxCell>
        <mxCell id="WJgly0HCDP2uMQnK31IG-41" value="Zahl" style="rounded=1;whiteSpace=wrap;html=1;fillColor=#e1d5e7;strokeColor=#9673a6;" vertex="1" parent="WJgly0HCDP2uMQnK31IG-102">
          <mxGeometry x="160" y="30" width="120" height="60" as="geometry" />
        </mxCell>
        <mxCell id="WJgly0HCDP2uMQnK31IG-42" value="Text" style="rounded=1;whiteSpace=wrap;html=1;fillColor=#dae8fc;strokeColor=#6c8ebf;" vertex="1" parent="WJgly0HCDP2uMQnK31IG-102">
          <mxGeometry x="300" y="30" width="120" height="60" as="geometry" />
        </mxCell>
        <mxCell id="WJgly0HCDP2uMQnK31IG-43" value="Datum" style="rounded=1;whiteSpace=wrap;html=1;fillColor=#d5e8d4;strokeColor=#82b366;" vertex="1" parent="WJgly0HCDP2uMQnK31IG-102">
          <mxGeometry x="440" y="30" width="120" height="60" as="geometry" />
        </mxCell>
        <mxCell id="WJgly0HCDP2uMQnK31IG-44" value="Boolean" style="rounded=1;whiteSpace=wrap;html=1;fillColor=#f8cecc;strokeColor=#b85450;" vertex="1" parent="WJgly0HCDP2uMQnK31IG-102">
          <mxGeometry x="580" y="30" width="120" height="60" as="geometry" />
        </mxCell>
        <mxCell id="WJgly0HCDP2uMQnK31IG-46" value="(v) = Virtuelle Felder" style="rounded=1;whiteSpace=wrap;html=1;" vertex="1" parent="WJgly0HCDP2uMQnK31IG-102">
          <mxGeometry x="720" y="30" width="120" height="60" as="geometry" />
        </mxCell>
        <mxCell id="WJgly0HCDP2uMQnK31IG-103" value="&lt;b&gt;Notizien und Erklärungen&lt;/b&gt;&lt;br&gt;&lt;br&gt;&lt;div style=&quot;&quot;&gt;&lt;div style=&quot;text-align: left;&quot;&gt;Diese Tabelle hat alle Teilnehmer zu die Veranstaltungen, Die einzige Teilnehmer sind hier hinzugefügt und haben Verlinkungen zu der Veranstaltung und zu die Adressen.&lt;/div&gt;&lt;/div&gt;" style="rounded=0;whiteSpace=wrap;html=1;verticalAlign=top;" vertex="1" parent="1">
          <mxGeometry x="-440" y="1390" width="270" height="350" as="geometry" />
        </mxCell>
        <mxCell id="WJgly0HCDP2uMQnK31IG-105" value="" style="group" vertex="1" connectable="0" parent="1">
          <mxGeometry x="220" y="180" width="1420" height="900" as="geometry" />
        </mxCell>
        <mxCell id="WJgly0HCDP2uMQnK31IG-2" value="Veranstaltungen - FREE02" style="shape=cylinder3;whiteSpace=wrap;html=1;boundedLbl=1;backgroundOutline=1;size=15;align=center;verticalAlign=top;fontStyle=1" vertex="1" parent="WJgly0HCDP2uMQnK31IG-105">
          <mxGeometry width="1420" height="900" as="geometry" />
        </mxCell>
        <mxCell id="WJgly0HCDP2uMQnK31IG-6" value="Datensatzdetails&lt;br&gt;&lt;br&gt;&lt;div style=&quot;text-align: left;&quot;&gt;ID&lt;/div&gt;&lt;div style=&quot;text-align: left;&quot;&gt;Erfasst am&lt;/div&gt;&lt;div style=&quot;text-align: left;&quot;&gt;Erfasst von&lt;/div&gt;&lt;div style=&quot;text-align: left;&quot;&gt;&lt;br&gt;&lt;/div&gt;&lt;div style=&quot;text-align: left;&quot;&gt;Geändert am&lt;/div&gt;&lt;div style=&quot;text-align: left;&quot;&gt;Geändert von&lt;/div&gt;" style="rounded=1;whiteSpace=wrap;html=1;verticalAlign=top;" vertex="1" parent="WJgly0HCDP2uMQnK31IG-105">
          <mxGeometry x="30" y="712.5" width="130" height="140" as="geometry" />
        </mxCell>
        <mxCell id="WJgly0HCDP2uMQnK31IG-75" value="" style="group" vertex="1" connectable="0" parent="WJgly0HCDP2uMQnK31IG-105">
          <mxGeometry x="580" y="380" width="530" height="390" as="geometry" />
        </mxCell>
        <mxCell id="WJgly0HCDP2uMQnK31IG-31" value="Unbekannt/Nicht in Eingabemaske" style="rounded=1;whiteSpace=wrap;html=1;verticalAlign=top;fontStyle=1" vertex="1" parent="WJgly0HCDP2uMQnK31IG-75">
          <mxGeometry width="530" height="390" as="geometry" />
        </mxCell>
        <mxCell id="WJgly0HCDP2uMQnK31IG-32" value="Aktuelle Anzahl&lt;br&gt;NUMBER4" style="html=1;whiteSpace=wrap;fillColor=#e1d5e7;strokeColor=#9673a6;" vertex="1" parent="WJgly0HCDP2uMQnK31IG-75">
          <mxGeometry x="30" y="15" width="110" height="50" as="geometry" />
        </mxCell>
        <mxCell id="WJgly0HCDP2uMQnK31IG-33" value="Aktueller Datensatz&lt;br&gt;YESNO5" style="html=1;whiteSpace=wrap;fillColor=#ffcccc;strokeColor=#36393d;" vertex="1" parent="WJgly0HCDP2uMQnK31IG-75">
          <mxGeometry x="30" y="75" width="110" height="50" as="geometry" />
        </mxCell>
        <mxCell id="WJgly0HCDP2uMQnK31IG-34" value="Anzahl Tage&lt;br&gt;NUMBER1" style="html=1;whiteSpace=wrap;fillColor=#e1d5e7;strokeColor=#9673a6;" vertex="1" parent="WJgly0HCDP2uMQnK31IG-75">
          <mxGeometry x="30" y="135" width="110" height="50" as="geometry" />
        </mxCell>
        <mxCell id="WJgly0HCDP2uMQnK31IG-35" value="Art&lt;br&gt;TEXT1" style="html=1;whiteSpace=wrap;fillColor=#dae8fc;strokeColor=#6c8ebf;" vertex="1" parent="WJgly0HCDP2uMQnK31IG-75">
          <mxGeometry x="30" y="195" width="110" height="50" as="geometry" />
        </mxCell>
        <mxCell id="WJgly0HCDP2uMQnK31IG-36" value="Beginn&lt;br&gt;DATETIME1" style="html=1;whiteSpace=wrap;fillColor=#d5e8d4;strokeColor=#82b366;" vertex="1" parent="WJgly0HCDP2uMQnK31IG-75">
          <mxGeometry x="30" y="255" width="110" height="50" as="geometry" />
        </mxCell>
        <mxCell id="WJgly0HCDP2uMQnK31IG-37" value="Ende&lt;br&gt;DATETIME2" style="html=1;whiteSpace=wrap;fillColor=#d5e8d4;strokeColor=#82b366;" vertex="1" parent="WJgly0HCDP2uMQnK31IG-75">
          <mxGeometry x="150" y="255" width="110" height="50" as="geometry" />
        </mxCell>
        <mxCell id="WJgly0HCDP2uMQnK31IG-38" value="&lt;div style=&quot;border-color: var(--border-color); text-align: left;&quot;&gt;Interne Bemerkung&lt;br&gt;TEXT2&lt;/div&gt;" style="html=1;whiteSpace=wrap;fillColor=#dae8fc;strokeColor=#6c8ebf;" vertex="1" parent="WJgly0HCDP2uMQnK31IG-75">
          <mxGeometry x="150" y="195" width="110" height="50" as="geometry" />
        </mxCell>
        <mxCell id="WJgly0HCDP2uMQnK31IG-50" value="&lt;div style=&quot;border-color: var(--border-color); text-align: left;&quot;&gt;Jahr (v)&lt;/div&gt;" style="html=1;whiteSpace=wrap;" vertex="1" parent="WJgly0HCDP2uMQnK31IG-75">
          <mxGeometry x="150" y="135" width="110" height="50" as="geometry" />
        </mxCell>
        <mxCell id="WJgly0HCDP2uMQnK31IG-51" value="&lt;div style=&quot;border-color: var(--border-color); text-align: left;&quot;&gt;Presi/TN&lt;br&gt;CURRENCY1&lt;/div&gt;" style="html=1;whiteSpace=wrap;fillColor=#e1d5e7;strokeColor=#9673a6;" vertex="1" parent="WJgly0HCDP2uMQnK31IG-75">
          <mxGeometry x="270" y="135" width="110" height="50" as="geometry" />
        </mxCell>
        <mxCell id="WJgly0HCDP2uMQnK31IG-52" value="&lt;div style=&quot;border-color: var(--border-color); text-align: left;&quot;&gt;Referent&lt;br&gt;FK2 (06 xxx)&lt;/div&gt;" style="html=1;whiteSpace=wrap;fillColor=#ffe6cc;strokeColor=#d79b00;" vertex="1" parent="WJgly0HCDP2uMQnK31IG-75">
          <mxGeometry x="390" y="75" width="110" height="50" as="geometry" />
        </mxCell>
        <mxCell id="WJgly0HCDP2uMQnK31IG-53" value="&lt;div style=&quot;border-color: var(--border-color); text-align: left;&quot;&gt;Ort/Raum&lt;br&gt;FK1 (01 xxx)&lt;/div&gt;" style="html=1;whiteSpace=wrap;fillColor=#ffe6cc;strokeColor=#d79b00;" vertex="1" parent="WJgly0HCDP2uMQnK31IG-75">
          <mxGeometry x="270" y="75" width="110" height="50" as="geometry" />
        </mxCell>
        <mxCell id="WJgly0HCDP2uMQnK31IG-54" value="&lt;div style=&quot;border-color: var(--border-color); text-align: left;&quot;&gt;Name&lt;br&gt;TEXT3&lt;/div&gt;" style="html=1;whiteSpace=wrap;fillColor=#dae8fc;strokeColor=#6c8ebf;" vertex="1" parent="WJgly0HCDP2uMQnK31IG-75">
          <mxGeometry x="150" y="75" width="110" height="50" as="geometry" />
        </mxCell>
        <mxCell id="WJgly0HCDP2uMQnK31IG-55" value="&lt;div style=&quot;border-color: var(--border-color); text-align: left;&quot;&gt;Netto Format (v)&lt;/div&gt;" style="html=1;whiteSpace=wrap;" vertex="1" parent="WJgly0HCDP2uMQnK31IG-75">
          <mxGeometry x="30" y="316" width="110" height="50" as="geometry" />
        </mxCell>
        <mxCell id="WJgly0HCDP2uMQnK31IG-56" value="&lt;div style=&quot;border-color: var(--border-color); text-align: left;&quot;&gt;TN-Anzahl min&lt;br&gt;NUMBER3&lt;/div&gt;" style="html=1;whiteSpace=wrap;fillColor=#e1d5e7;strokeColor=#9673a6;" vertex="1" parent="WJgly0HCDP2uMQnK31IG-75">
          <mxGeometry x="390" y="195" width="110" height="50" as="geometry" />
        </mxCell>
        <mxCell id="WJgly0HCDP2uMQnK31IG-57" value="&lt;div style=&quot;border-color: var(--border-color); text-align: left;&quot;&gt;TN-Anzahl max&lt;br&gt;NUMBER2&lt;/div&gt;" style="html=1;whiteSpace=wrap;fillColor=#e1d5e7;strokeColor=#9673a6;" vertex="1" parent="WJgly0HCDP2uMQnK31IG-75">
          <mxGeometry x="390" y="135" width="110" height="50" as="geometry" />
        </mxCell>
        <mxCell id="WJgly0HCDP2uMQnK31IG-58" value="&lt;div style=&quot;border-color: var(--border-color); text-align: left;&quot;&gt;Beschreibung&lt;br&gt;NOTES1&lt;/div&gt;" style="html=1;whiteSpace=wrap;fillColor=#dae8fc;strokeColor=#6c8ebf;" vertex="1" parent="WJgly0HCDP2uMQnK31IG-75">
          <mxGeometry x="270" y="255" width="110" height="50" as="geometry" />
        </mxCell>
        <mxCell id="WJgly0HCDP2uMQnK31IG-59" value="&lt;div style=&quot;border-color: var(--border-color); text-align: left;&quot;&gt;Raum gebucht&lt;br&gt;YESNO2&lt;/div&gt;" style="html=1;whiteSpace=wrap;fillColor=#f8cecc;strokeColor=#b85450;" vertex="1" parent="WJgly0HCDP2uMQnK31IG-75">
          <mxGeometry x="270" y="195" width="110" height="50" as="geometry" />
        </mxCell>
        <mxCell id="WJgly0HCDP2uMQnK31IG-61" value="&lt;div style=&quot;border-color: var(--border-color); text-align: left;&quot;&gt;Verpflegung gebucht&lt;br&gt;YESNO1&lt;/div&gt;" style="html=1;whiteSpace=wrap;fillColor=#f8cecc;strokeColor=#b85450;" vertex="1" parent="WJgly0HCDP2uMQnK31IG-75">
          <mxGeometry x="390" y="255" width="110" height="50" as="geometry" />
        </mxCell>
        <mxCell id="WJgly0HCDP2uMQnK31IG-62" value="&lt;div style=&quot;border-color: var(--border-color); text-align: left;&quot;&gt;Weblink&lt;br&gt;INTERNET1&lt;/div&gt;" style="html=1;whiteSpace=wrap;fillColor=#dae8fc;strokeColor=#6c8ebf;" vertex="1" parent="WJgly0HCDP2uMQnK31IG-75">
          <mxGeometry x="390" y="15" width="110" height="50" as="geometry" />
        </mxCell>
        <mxCell id="WJgly0HCDP2uMQnK31IG-76" value="" style="group" vertex="1" connectable="0" parent="WJgly0HCDP2uMQnK31IG-105">
          <mxGeometry x="580" y="80" width="440" height="270" as="geometry" />
        </mxCell>
        <mxCell id="WJgly0HCDP2uMQnK31IG-4" value="&lt;b&gt;Preise&lt;/b&gt;" style="rounded=1;whiteSpace=wrap;html=1;verticalAlign=top;" vertex="1" parent="WJgly0HCDP2uMQnK31IG-76">
          <mxGeometry width="440" height="270" as="geometry" />
        </mxCell>
        <mxCell id="WJgly0HCDP2uMQnK31IG-64" value="Bemerkung Mitglieder (12)&lt;br&gt;NOTES9" style="html=1;whiteSpace=wrap;fillColor=#dae8fc;strokeColor=#6c8ebf;" vertex="1" parent="WJgly0HCDP2uMQnK31IG-76">
          <mxGeometry x="165" y="120" width="110" height="50" as="geometry" />
        </mxCell>
        <mxCell id="WJgly0HCDP2uMQnK31IG-65" value="Bemerkung Nicht-Mitglieder (34)&lt;br&gt;NOTES10" style="html=1;whiteSpace=wrap;fillColor=#dae8fc;strokeColor=#6c8ebf;" vertex="1" parent="WJgly0HCDP2uMQnK31IG-76">
          <mxGeometry x="165" y="190" width="110" height="50" as="geometry" />
        </mxCell>
        <mxCell id="WJgly0HCDP2uMQnK31IG-66" value="Presi Nicht Mitglied weitere Person&lt;br&gt;CURRENCY5" style="html=1;whiteSpace=wrap;fillColor=#e1d5e7;strokeColor=#9673a6;" vertex="1" parent="WJgly0HCDP2uMQnK31IG-76">
          <mxGeometry x="165" y="50" width="110" height="50" as="geometry" />
        </mxCell>
        <mxCell id="WJgly0HCDP2uMQnK31IG-67" value="Preis Mitglied weitere Person&lt;br&gt;CURRENCY3" style="html=1;whiteSpace=wrap;fillColor=#e1d5e7;strokeColor=#9673a6;" vertex="1" parent="WJgly0HCDP2uMQnK31IG-76">
          <mxGeometry x="295" y="50" width="110" height="50" as="geometry" />
        </mxCell>
        <mxCell id="WJgly0HCDP2uMQnK31IG-68" value="Preis Nicht Mitglied&lt;br&gt;CURRENCY4" style="html=1;whiteSpace=wrap;fillColor=#e1d5e7;strokeColor=#9673a6;" vertex="1" parent="WJgly0HCDP2uMQnK31IG-76">
          <mxGeometry x="295" y="120" width="110" height="50" as="geometry" />
        </mxCell>
        <mxCell id="WJgly0HCDP2uMQnK31IG-69" value="Preis Mitglied&lt;br&gt;CURRENCY2" style="html=1;whiteSpace=wrap;fillColor=#e1d5e7;strokeColor=#9673a6;" vertex="1" parent="WJgly0HCDP2uMQnK31IG-76">
          <mxGeometry x="35" y="190" width="110" height="50" as="geometry" />
        </mxCell>
        <mxCell id="WJgly0HCDP2uMQnK31IG-70" value="Bruttopreis&lt;br&gt;YESNO6" style="html=1;whiteSpace=wrap;fillColor=#f8cecc;strokeColor=#b85450;" vertex="1" parent="WJgly0HCDP2uMQnK31IG-76">
          <mxGeometry x="35" y="120" width="110" height="50" as="geometry" />
        </mxCell>
        <mxCell id="WJgly0HCDP2uMQnK31IG-71" value="Nettopreis&lt;br&gt;YESNO4" style="html=1;whiteSpace=wrap;fillColor=#f8cecc;strokeColor=#b85450;" vertex="1" parent="WJgly0HCDP2uMQnK31IG-76">
          <mxGeometry x="35" y="50" width="110" height="50" as="geometry" />
        </mxCell>
        <mxCell id="WJgly0HCDP2uMQnK31IG-79" value="" style="group" vertex="1" connectable="0" parent="WJgly0HCDP2uMQnK31IG-105">
          <mxGeometry x="179" y="705" width="390" height="155" as="geometry" />
        </mxCell>
        <mxCell id="WJgly0HCDP2uMQnK31IG-5" value="&lt;b&gt;Allgemeine Informationen&lt;/b&gt;" style="rounded=1;whiteSpace=wrap;html=1;verticalAlign=top;" vertex="1" parent="WJgly0HCDP2uMQnK31IG-79">
          <mxGeometry width="390" height="155" as="geometry" />
        </mxCell>
        <mxCell id="WJgly0HCDP2uMQnK31IG-49" value="Anmerkungen&lt;br&gt;NOTES6" style="html=1;whiteSpace=wrap;fillColor=#cce5ff;strokeColor=#36393d;" vertex="1" parent="WJgly0HCDP2uMQnK31IG-79">
          <mxGeometry x="20" y="30" width="110" height="50" as="geometry" />
        </mxCell>
        <mxCell id="WJgly0HCDP2uMQnK31IG-73" value="Inhalt&lt;br&gt;NOTES5" style="html=1;whiteSpace=wrap;fillColor=#cce5ff;strokeColor=#36393d;" vertex="1" parent="WJgly0HCDP2uMQnK31IG-79">
          <mxGeometry x="20" y="90" width="110" height="50" as="geometry" />
        </mxCell>
        <mxCell id="WJgly0HCDP2uMQnK31IG-74" value="Leitung&lt;br&gt;NOTES7" style="html=1;whiteSpace=wrap;fillColor=#cce5ff;strokeColor=#36393d;" vertex="1" parent="WJgly0HCDP2uMQnK31IG-79">
          <mxGeometry x="260" y="30" width="110" height="50" as="geometry" />
        </mxCell>
        <mxCell id="WJgly0HCDP2uMQnK31IG-77" value="Zielgruppe&lt;br&gt;NOTES3" style="html=1;whiteSpace=wrap;fillColor=#cce5ff;strokeColor=#36393d;" vertex="1" parent="WJgly0HCDP2uMQnK31IG-79">
          <mxGeometry x="140" y="90" width="110" height="50" as="geometry" />
        </mxCell>
        <mxCell id="WJgly0HCDP2uMQnK31IG-78" value="Ziele&lt;br&gt;NOTES4" style="html=1;whiteSpace=wrap;fillColor=#cce5ff;strokeColor=#36393d;" vertex="1" parent="WJgly0HCDP2uMQnK31IG-79">
          <mxGeometry x="140" y="30" width="110" height="50" as="geometry" />
        </mxCell>
        <mxCell id="WJgly0HCDP2uMQnK31IG-80" value="" style="group" vertex="1" connectable="0" parent="WJgly0HCDP2uMQnK31IG-105">
          <mxGeometry x="30" y="80" width="520" height="610" as="geometry" />
        </mxCell>
        <mxCell id="WJgly0HCDP2uMQnK31IG-3" value="&lt;b&gt;Veranstaltunginformationen&lt;/b&gt;" style="rounded=1;whiteSpace=wrap;html=1;verticalAlign=top;" vertex="1" parent="WJgly0HCDP2uMQnK31IG-80">
          <mxGeometry width="520" height="610" as="geometry" />
        </mxCell>
        <mxCell id="WJgly0HCDP2uMQnK31IG-8" value="Seminarnummer&lt;br&gt;TEXT8" style="html=1;whiteSpace=wrap;fillColor=#dae8fc;strokeColor=#6c8ebf;" vertex="1" parent="WJgly0HCDP2uMQnK31IG-80">
          <mxGeometry x="30" y="40" width="110" height="50" as="geometry" />
        </mxCell>
        <mxCell id="WJgly0HCDP2uMQnK31IG-9" value="Titel&lt;br&gt;NOTES2" style="html=1;whiteSpace=wrap;fillColor=#dae8fc;strokeColor=#6c8ebf;" vertex="1" parent="WJgly0HCDP2uMQnK31IG-80">
          <mxGeometry x="30" y="100" width="110" height="50" as="geometry" />
        </mxCell>
        <mxCell id="WJgly0HCDP2uMQnK31IG-10" value="Typ&lt;br&gt;TEXT7" style="html=1;whiteSpace=wrap;fillColor=#dae8fc;strokeColor=#6c8ebf;" vertex="1" parent="WJgly0HCDP2uMQnK31IG-80">
          <mxGeometry x="30" y="160" width="110" height="50" as="geometry" />
        </mxCell>
        <mxCell id="WJgly0HCDP2uMQnK31IG-11" value="Bereich&lt;br&gt;TEXT6" style="html=1;whiteSpace=wrap;fillColor=#dae8fc;strokeColor=#6c8ebf;" vertex="1" parent="WJgly0HCDP2uMQnK31IG-80">
          <mxGeometry x="30" y="220" width="110" height="50" as="geometry" />
        </mxCell>
        <mxCell id="WJgly0HCDP2uMQnK31IG-12" value="Start&lt;br&gt;DATE1" style="html=1;whiteSpace=wrap;fillColor=#d5e8d4;strokeColor=#82b366;" vertex="1" parent="WJgly0HCDP2uMQnK31IG-80">
          <mxGeometry x="150" y="220" width="110" height="50" as="geometry" />
        </mxCell>
        <mxCell id="WJgly0HCDP2uMQnK31IG-13" value="Termininfo&lt;br&gt;NOTES8" style="html=1;whiteSpace=wrap;fillColor=#dae8fc;strokeColor=#6c8ebf;" vertex="1" parent="WJgly0HCDP2uMQnK31IG-80">
          <mxGeometry x="150" y="40" width="110" height="50" as="geometry" />
        </mxCell>
        <mxCell id="WJgly0HCDP2uMQnK31IG-14" value="Uhrzeit&lt;br&gt;TEXT5" style="html=1;whiteSpace=wrap;fillColor=#dae8fc;strokeColor=#6c8ebf;" vertex="1" parent="WJgly0HCDP2uMQnK31IG-80">
          <mxGeometry x="150" y="100" width="110" height="50" as="geometry" />
        </mxCell>
        <mxCell id="WJgly0HCDP2uMQnK31IG-15" value="Dauer&lt;br&gt;TEXT9" style="html=1;whiteSpace=wrap;fillColor=#dae8fc;strokeColor=#6c8ebf;" vertex="1" parent="WJgly0HCDP2uMQnK31IG-80">
          <mxGeometry x="150" y="160" width="110" height="50" as="geometry" />
        </mxCell>
        <mxCell id="WJgly0HCDP2uMQnK31IG-18" value="Teilnehmerzahl Min.&lt;br&gt;NUMBER6" style="html=1;whiteSpace=wrap;fillColor=#e1d5e7;strokeColor=#9673a6;" vertex="1" parent="WJgly0HCDP2uMQnK31IG-80">
          <mxGeometry x="150" y="280" width="110" height="50" as="geometry" />
        </mxCell>
        <mxCell id="WJgly0HCDP2uMQnK31IG-20" value="Teilnehmerzahl Max.&lt;br&gt;NUMBER7" style="html=1;whiteSpace=wrap;fillColor=#e1d5e7;strokeColor=#9673a6;" vertex="1" parent="WJgly0HCDP2uMQnK31IG-80">
          <mxGeometry x="30" y="280" width="110" height="50" as="geometry" />
        </mxCell>
        <mxCell id="WJgly0HCDP2uMQnK31IG-21" value="Veranstaltungsort&lt;br&gt;FK4 (Adressen)" style="html=1;whiteSpace=wrap;fillColor=#ffe6cc;strokeColor=#d79b00;" vertex="1" parent="WJgly0HCDP2uMQnK31IG-80">
          <mxGeometry x="30" y="342.5" width="110" height="50" as="geometry" />
        </mxCell>
        <mxCell id="WJgly0HCDP2uMQnK31IG-22" value="Link zur Veranstaltung?&lt;br&gt;INTERNET2" style="html=1;whiteSpace=wrap;fillColor=#dae8fc;strokeColor=#6c8ebf;" vertex="1" parent="WJgly0HCDP2uMQnK31IG-80">
          <mxGeometry x="390" y="110" width="110" height="50" as="geometry" />
        </mxCell>
        <mxCell id="WJgly0HCDP2uMQnK31IG-23" value="&lt;div style=&quot;border-color: var(--border-color); text-align: left;&quot;&gt;Seminarlink (v)&lt;/div&gt;" style="html=1;whiteSpace=wrap;" vertex="1" parent="WJgly0HCDP2uMQnK31IG-80">
          <mxGeometry x="150" y="342.5" width="110" height="50" as="geometry" />
        </mxCell>
        <mxCell id="WJgly0HCDP2uMQnK31IG-24" value="Dozent&lt;br&gt;FK3 (Adressen)" style="html=1;whiteSpace=wrap;fillColor=#ffe6cc;strokeColor=#d79b00;" vertex="1" parent="WJgly0HCDP2uMQnK31IG-80">
          <mxGeometry x="30" y="460" width="110" height="50" as="geometry" />
        </mxCell>
        <mxCell id="WJgly0HCDP2uMQnK31IG-25" value="Catering&lt;br&gt;FK5 (Adressen)" style="html=1;whiteSpace=wrap;fillColor=#ffe6cc;strokeColor=#d79b00;" vertex="1" parent="WJgly0HCDP2uMQnK31IG-80">
          <mxGeometry x="150" y="460" width="110" height="50" as="geometry" />
        </mxCell>
        <mxCell id="WJgly0HCDP2uMQnK31IG-26" value="Veröffentlichung im Internet&lt;br&gt;YESNO3" style="html=1;whiteSpace=wrap;fillColor=#f8cecc;strokeColor=#b85450;" vertex="1" parent="WJgly0HCDP2uMQnK31IG-80">
          <mxGeometry x="270" y="460" width="110" height="50" as="geometry" />
        </mxCell>
        <mxCell id="WJgly0HCDP2uMQnK31IG-27" value="Ansprechpartner&lt;br&gt;FK7 (Adressen)" style="html=1;whiteSpace=wrap;labelBackgroundColor=none;labelBorderColor=none;fillColor=#ffe6cc;strokeColor=#d79b00;" vertex="1" parent="WJgly0HCDP2uMQnK31IG-80">
          <mxGeometry x="150" y="520" width="110" height="50" as="geometry" />
        </mxCell>
        <mxCell id="WJgly0HCDP2uMQnK31IG-28" value="Sachbearbeiter&lt;br&gt;FK9 (Adressen)" style="html=1;whiteSpace=wrap;fillColor=#ffe6cc;strokeColor=#d79b00;" vertex="1" parent="WJgly0HCDP2uMQnK31IG-80">
          <mxGeometry x="30" y="520" width="110" height="50" as="geometry" />
        </mxCell>
        <mxCell id="WJgly0HCDP2uMQnK31IG-29" value="Status&lt;br&gt;TEXT4" style="html=1;whiteSpace=wrap;fillColor=#dae8fc;strokeColor=#6c8ebf;" vertex="1" parent="WJgly0HCDP2uMQnK31IG-80">
          <mxGeometry x="270" y="520" width="110" height="50" as="geometry" />
        </mxCell>
        <mxCell id="WJgly0HCDP2uMQnK31IG-82" value="&lt;b&gt;Notizien und Erklärungen&lt;/b&gt;&lt;br&gt;&lt;br&gt;&lt;div style=&quot;&quot;&gt;&lt;div style=&quot;text-align: left;&quot;&gt;&lt;span style=&quot;background-color: initial;&quot;&gt;Ort/Raum und Referent sind die einzigeln Felder Verlinkt mit dem xxx Datenbanken, wofür brauchen wir diese xxx Datenbanken und diese Verlinkungen ist niewo dokumentiert und Ihre Nutzung ist unbekannt.&lt;/span&gt;&lt;/div&gt;&lt;br&gt;&lt;b&gt;Aktuelle Probleme&lt;/b&gt;&lt;br&gt;&lt;div style=&quot;text-align: left;&quot;&gt;&lt;br&gt;1. Die Format für die Uhrzeit, Dauer, Start, Termininfo sind auf Text geschrieben und haben keine flexibilität und keine Struktur für eine API zum Prototype&lt;br&gt;&lt;br&gt;2. Es gibt keine automatische Status Felde. Das Status muss aktuelle manuelle geändert sein.&lt;br&gt;&lt;br&gt;3. Es gibt zu viele Felde die nicht benutzt sind, entweder sind die alt, migriert aus MOTIV aber nicht relevant oder waren test Felde und waren nicht gelöscht&lt;/div&gt;&lt;/div&gt;" style="rounded=0;whiteSpace=wrap;html=1;verticalAlign=top;" vertex="1" parent="WJgly0HCDP2uMQnK31IG-105">
          <mxGeometry x="1130" y="80" width="270" height="380" as="geometry" />
        </mxCell>
        <mxCell id="WJgly0HCDP2uMQnK31IG-106" style="edgeStyle=orthogonalEdgeStyle;rounded=0;orthogonalLoop=1;jettySize=auto;html=1;exitX=0;exitY=0;exitDx=0;exitDy=232.50000000000003;exitPerimeter=0;entryX=1;entryY=0.361;entryDx=0;entryDy=0;entryPerimeter=0;fillColor=#ffe6cc;strokeColor=#d79b00;shape=flexArrow;" edge="1" parent="1" source="WJgly0HCDP2uMQnK31IG-2" target="WJgly0HCDP2uMQnK31IG-88">
          <mxGeometry relative="1" as="geometry" />
        </mxCell>
        <mxCell id="WJgly0HCDP2uMQnK31IG-107" style="edgeStyle=orthogonalEdgeStyle;rounded=0;orthogonalLoop=1;jettySize=auto;html=1;entryX=0.145;entryY=1;entryDx=0;entryDy=-4.35;entryPerimeter=0;shape=flexArrow;fillColor=#ffe6cc;strokeColor=#d79b00;" edge="1" parent="1" source="WJgly0HCDP2uMQnK31IG-97" target="WJgly0HCDP2uMQnK31IG-88">
          <mxGeometry relative="1" as="geometry" />
        </mxCell>
      </root>
    </mxGraphModel>
  </diagram>
  <diagram id="yjo8FC_oOf1awyOxdCaw" name="Geplannt Struktur">
    <mxGraphModel dx="2198" dy="789" grid="1" gridSize="10" guides="1" tooltips="1" connect="1" arrows="1" fold="1" page="1" pageScale="1" pageWidth="827" pageHeight="1169" math="0" shadow="0">
      <root>
        <mxCell id="0" />
        <mxCell id="1" parent="0" />
        <mxCell id="TvrkLMtzig9tNvWBCKO--1" value="ADRESSEN" style="shape=cylinder3;whiteSpace=wrap;html=1;boundedLbl=1;backgroundOutline=1;size=15;fontStyle=1;verticalAlign=top;" vertex="1" parent="1">
          <mxGeometry x="-790" y="60" width="670" height="970" as="geometry" />
        </mxCell>
        <mxCell id="TvrkLMtzig9tNvWBCKO--6" value="FREE03 - Veranstaltungsteilnehmer" style="shape=cylinder3;whiteSpace=wrap;html=1;boundedLbl=1;backgroundOutline=1;size=15;verticalAlign=top;fontStyle=1" vertex="1" parent="1">
          <mxGeometry x="-650" y="1320" width="520" height="695" as="geometry" />
        </mxCell>
        <mxCell id="TvrkLMtzig9tNvWBCKO--7" style="edgeStyle=orthogonalEdgeStyle;rounded=0;orthogonalLoop=1;jettySize=auto;html=1;entryX=0.145;entryY=1;entryDx=0;entryDy=-4.35;entryPerimeter=0;startArrow=none;startFill=0;shape=flexArrow;fillColor=#ffe6cc;strokeColor=#d79b00;endArrow=block;endFill=0;" edge="1" parent="1" source="TvrkLMtzig9tNvWBCKO--6" target="TvrkLMtzig9tNvWBCKO--19">
          <mxGeometry relative="1" as="geometry">
            <Array as="points">
              <mxPoint x="426" y="1397" />
            </Array>
          </mxGeometry>
        </mxCell>
        <mxCell id="TvrkLMtzig9tNvWBCKO--8" value="Datensatzdetails&lt;br&gt;&lt;br&gt;&lt;div style=&quot;text-align: left;&quot;&gt;ID&lt;/div&gt;&lt;div style=&quot;text-align: left;&quot;&gt;Erfasst am&lt;/div&gt;&lt;div style=&quot;text-align: left;&quot;&gt;Erfasst von&lt;/div&gt;&lt;div style=&quot;text-align: left;&quot;&gt;&lt;br&gt;&lt;/div&gt;&lt;div style=&quot;text-align: left;&quot;&gt;Geändert am&lt;/div&gt;&lt;div style=&quot;text-align: left;&quot;&gt;Geändert von&lt;/div&gt;" style="rounded=1;whiteSpace=wrap;html=1;verticalAlign=top;" vertex="1" parent="1">
          <mxGeometry x="-610" y="1450" width="130" height="140" as="geometry" />
        </mxCell>
        <mxCell id="TvrkLMtzig9tNvWBCKO--9" value="" style="group" vertex="1" connectable="0" parent="1">
          <mxGeometry x="760" y="40" width="860" height="110" as="geometry" />
        </mxCell>
        <mxCell id="TvrkLMtzig9tNvWBCKO--10" value="&lt;b&gt;Infos&lt;/b&gt;" style="rounded=0;whiteSpace=wrap;html=1;verticalAlign=top;" vertex="1" parent="TvrkLMtzig9tNvWBCKO--9">
          <mxGeometry width="860" height="110" as="geometry" />
        </mxCell>
        <mxCell id="TvrkLMtzig9tNvWBCKO--11" value="Beziehung" style="rounded=1;whiteSpace=wrap;html=1;fillColor=#ffe6cc;strokeColor=#d79b00;" vertex="1" parent="TvrkLMtzig9tNvWBCKO--9">
          <mxGeometry x="20" y="30" width="120" height="60" as="geometry" />
        </mxCell>
        <mxCell id="TvrkLMtzig9tNvWBCKO--12" value="Zahl" style="rounded=1;whiteSpace=wrap;html=1;fillColor=#e1d5e7;strokeColor=#9673a6;" vertex="1" parent="TvrkLMtzig9tNvWBCKO--9">
          <mxGeometry x="160" y="30" width="120" height="60" as="geometry" />
        </mxCell>
        <mxCell id="TvrkLMtzig9tNvWBCKO--13" value="Text" style="rounded=1;whiteSpace=wrap;html=1;fillColor=#dae8fc;strokeColor=#6c8ebf;" vertex="1" parent="TvrkLMtzig9tNvWBCKO--9">
          <mxGeometry x="300" y="30" width="120" height="60" as="geometry" />
        </mxCell>
        <mxCell id="TvrkLMtzig9tNvWBCKO--14" value="Datum" style="rounded=1;whiteSpace=wrap;html=1;fillColor=#d5e8d4;strokeColor=#82b366;" vertex="1" parent="TvrkLMtzig9tNvWBCKO--9">
          <mxGeometry x="440" y="30" width="120" height="60" as="geometry" />
        </mxCell>
        <mxCell id="TvrkLMtzig9tNvWBCKO--15" value="Boolean" style="rounded=1;whiteSpace=wrap;html=1;fillColor=#f8cecc;strokeColor=#b85450;" vertex="1" parent="TvrkLMtzig9tNvWBCKO--9">
          <mxGeometry x="580" y="30" width="120" height="60" as="geometry" />
        </mxCell>
        <mxCell id="TvrkLMtzig9tNvWBCKO--16" value="(v) = Virtuelle Felder" style="rounded=1;whiteSpace=wrap;html=1;" vertex="1" parent="TvrkLMtzig9tNvWBCKO--9">
          <mxGeometry x="720" y="30" width="120" height="60" as="geometry" />
        </mxCell>
        <mxCell id="TvrkLMtzig9tNvWBCKO--17" value="&lt;b&gt;Notizien und Erklärungen&lt;/b&gt;&lt;br&gt;&lt;br&gt;&lt;div style=&quot;&quot;&gt;&lt;div style=&quot;text-align: left;&quot;&gt;Diese Tabelle hat alle Teilnehmer zu die Veranstaltungen, Die einzige Teilnehmer sind hier hinzugefügt und haben Verlinkungen zu der Veranstaltung und zu die Adressen.&lt;/div&gt;&lt;/div&gt;" style="rounded=0;whiteSpace=wrap;html=1;verticalAlign=top;" vertex="1" parent="1">
          <mxGeometry x="-440" y="1390" width="270" height="350" as="geometry" />
        </mxCell>
        <mxCell id="TvrkLMtzig9tNvWBCKO--18" value="" style="group;fontStyle=1;verticalAlign=top;" vertex="1" connectable="0" parent="1">
          <mxGeometry x="220" y="180" width="1420" height="900" as="geometry" />
        </mxCell>
        <mxCell id="TvrkLMtzig9tNvWBCKO--19" value="Veranstaltungen - FREE02" style="shape=cylinder3;whiteSpace=wrap;html=1;boundedLbl=1;backgroundOutline=1;size=15;align=center;verticalAlign=top;fontStyle=1" vertex="1" parent="TvrkLMtzig9tNvWBCKO--18">
          <mxGeometry width="1420" height="900" as="geometry" />
        </mxCell>
        <mxCell id="TvrkLMtzig9tNvWBCKO--20" value="Datensatzdetails&lt;br&gt;&lt;br&gt;&lt;div style=&quot;text-align: left;&quot;&gt;ID&lt;/div&gt;&lt;div style=&quot;text-align: left;&quot;&gt;Erfasst am&lt;/div&gt;&lt;div style=&quot;text-align: left;&quot;&gt;Erfasst von&lt;/div&gt;&lt;div style=&quot;text-align: left;&quot;&gt;&lt;br&gt;&lt;/div&gt;&lt;div style=&quot;text-align: left;&quot;&gt;Geändert am&lt;/div&gt;&lt;div style=&quot;text-align: left;&quot;&gt;Geändert von&lt;/div&gt;" style="rounded=1;whiteSpace=wrap;html=1;verticalAlign=top;" vertex="1" parent="TvrkLMtzig9tNvWBCKO--18">
          <mxGeometry x="30" y="712.5" width="130" height="140" as="geometry" />
        </mxCell>
        <mxCell id="TvrkLMtzig9tNvWBCKO--21" value="" style="group" vertex="1" connectable="0" parent="TvrkLMtzig9tNvWBCKO--18">
          <mxGeometry x="580" y="380" width="530" height="390" as="geometry" />
        </mxCell>
        <mxCell id="TvrkLMtzig9tNvWBCKO--22" value="Löschen" style="rounded=1;whiteSpace=wrap;html=1;verticalAlign=top;fontStyle=1;fillColor=#f8cecc;strokeColor=#b85450;" vertex="1" parent="TvrkLMtzig9tNvWBCKO--21">
          <mxGeometry width="530" height="390" as="geometry" />
        </mxCell>
        <mxCell id="TvrkLMtzig9tNvWBCKO--23" value="Aktuelle Anzahl&lt;br&gt;NUMBER4" style="html=1;whiteSpace=wrap;fillColor=#e1d5e7;strokeColor=#9673a6;" vertex="1" parent="TvrkLMtzig9tNvWBCKO--21">
          <mxGeometry x="30" y="15" width="110" height="50" as="geometry" />
        </mxCell>
        <mxCell id="TvrkLMtzig9tNvWBCKO--24" value="Aktueller Datensatz&lt;br&gt;YESNO5" style="html=1;whiteSpace=wrap;fillColor=#ffcccc;strokeColor=#36393d;" vertex="1" parent="TvrkLMtzig9tNvWBCKO--21">
          <mxGeometry x="30" y="75" width="110" height="50" as="geometry" />
        </mxCell>
        <mxCell id="TvrkLMtzig9tNvWBCKO--25" value="Anzahl Tage&lt;br&gt;NUMBER1" style="html=1;whiteSpace=wrap;fillColor=#e1d5e7;strokeColor=#9673a6;" vertex="1" parent="TvrkLMtzig9tNvWBCKO--21">
          <mxGeometry x="30" y="135" width="110" height="50" as="geometry" />
        </mxCell>
        <mxCell id="TvrkLMtzig9tNvWBCKO--26" value="Art&lt;br&gt;TEXT1" style="html=1;whiteSpace=wrap;fillColor=#dae8fc;strokeColor=#6c8ebf;" vertex="1" parent="TvrkLMtzig9tNvWBCKO--21">
          <mxGeometry x="30" y="195" width="110" height="50" as="geometry" />
        </mxCell>
        <mxCell id="TvrkLMtzig9tNvWBCKO--27" value="Beginn&lt;br&gt;DATETIME1" style="html=1;whiteSpace=wrap;fillColor=#d5e8d4;strokeColor=#82b366;" vertex="1" parent="TvrkLMtzig9tNvWBCKO--21">
          <mxGeometry x="30" y="255" width="110" height="50" as="geometry" />
        </mxCell>
        <mxCell id="TvrkLMtzig9tNvWBCKO--28" value="Ende&lt;br&gt;DATETIME2" style="html=1;whiteSpace=wrap;fillColor=#d5e8d4;strokeColor=#82b366;" vertex="1" parent="TvrkLMtzig9tNvWBCKO--21">
          <mxGeometry x="150" y="255" width="110" height="50" as="geometry" />
        </mxCell>
        <mxCell id="TvrkLMtzig9tNvWBCKO--29" value="&lt;div style=&quot;border-color: var(--border-color); text-align: left;&quot;&gt;Interne Bemerkung&lt;br&gt;TEXT2&lt;/div&gt;" style="html=1;whiteSpace=wrap;fillColor=#dae8fc;strokeColor=#6c8ebf;" vertex="1" parent="TvrkLMtzig9tNvWBCKO--21">
          <mxGeometry x="150" y="195" width="110" height="50" as="geometry" />
        </mxCell>
        <mxCell id="TvrkLMtzig9tNvWBCKO--30" value="&lt;div style=&quot;border-color: var(--border-color); text-align: left;&quot;&gt;Jahr (v)&lt;/div&gt;" style="html=1;whiteSpace=wrap;" vertex="1" parent="TvrkLMtzig9tNvWBCKO--21">
          <mxGeometry x="150" y="135" width="110" height="50" as="geometry" />
        </mxCell>
        <mxCell id="TvrkLMtzig9tNvWBCKO--31" value="&lt;div style=&quot;border-color: var(--border-color); text-align: left;&quot;&gt;Presi/TN&lt;br&gt;CURRENCY1&lt;/div&gt;" style="html=1;whiteSpace=wrap;fillColor=#e1d5e7;strokeColor=#9673a6;" vertex="1" parent="TvrkLMtzig9tNvWBCKO--21">
          <mxGeometry x="270" y="135" width="110" height="50" as="geometry" />
        </mxCell>
        <mxCell id="TvrkLMtzig9tNvWBCKO--32" value="&lt;div style=&quot;border-color: var(--border-color); text-align: left;&quot;&gt;Referent&lt;br&gt;FK2 (06 xxx)&lt;/div&gt;" style="html=1;whiteSpace=wrap;fillColor=#ffe6cc;strokeColor=#d79b00;" vertex="1" parent="TvrkLMtzig9tNvWBCKO--21">
          <mxGeometry x="390" y="75" width="110" height="50" as="geometry" />
        </mxCell>
        <mxCell id="TvrkLMtzig9tNvWBCKO--33" value="&lt;div style=&quot;border-color: var(--border-color); text-align: left;&quot;&gt;Ort/Raum&lt;br&gt;FK1 (01 xxx)&lt;/div&gt;" style="html=1;whiteSpace=wrap;fillColor=#ffe6cc;strokeColor=#d79b00;" vertex="1" parent="TvrkLMtzig9tNvWBCKO--21">
          <mxGeometry x="270" y="75" width="110" height="50" as="geometry" />
        </mxCell>
        <mxCell id="TvrkLMtzig9tNvWBCKO--34" value="&lt;div style=&quot;border-color: var(--border-color); text-align: left;&quot;&gt;Name&lt;br&gt;TEXT3&lt;/div&gt;" style="html=1;whiteSpace=wrap;fillColor=#dae8fc;strokeColor=#6c8ebf;" vertex="1" parent="TvrkLMtzig9tNvWBCKO--21">
          <mxGeometry x="150" y="75" width="110" height="50" as="geometry" />
        </mxCell>
        <mxCell id="TvrkLMtzig9tNvWBCKO--35" value="&lt;div style=&quot;border-color: var(--border-color); text-align: left;&quot;&gt;Netto Format (v)&lt;/div&gt;" style="html=1;whiteSpace=wrap;" vertex="1" parent="TvrkLMtzig9tNvWBCKO--21">
          <mxGeometry x="30" y="316" width="110" height="50" as="geometry" />
        </mxCell>
        <mxCell id="TvrkLMtzig9tNvWBCKO--36" value="&lt;div style=&quot;border-color: var(--border-color); text-align: left;&quot;&gt;TN-Anzahl min&lt;br&gt;NUMBER3&lt;/div&gt;" style="html=1;whiteSpace=wrap;fillColor=#e1d5e7;strokeColor=#9673a6;" vertex="1" parent="TvrkLMtzig9tNvWBCKO--21">
          <mxGeometry x="390" y="195" width="110" height="50" as="geometry" />
        </mxCell>
        <mxCell id="TvrkLMtzig9tNvWBCKO--37" value="&lt;div style=&quot;border-color: var(--border-color); text-align: left;&quot;&gt;TN-Anzahl max&lt;br&gt;NUMBER2&lt;/div&gt;" style="html=1;whiteSpace=wrap;fillColor=#e1d5e7;strokeColor=#9673a6;" vertex="1" parent="TvrkLMtzig9tNvWBCKO--21">
          <mxGeometry x="390" y="135" width="110" height="50" as="geometry" />
        </mxCell>
        <mxCell id="TvrkLMtzig9tNvWBCKO--38" value="&lt;div style=&quot;border-color: var(--border-color); text-align: left;&quot;&gt;Beschreibung&lt;br&gt;NOTES1&lt;/div&gt;" style="html=1;whiteSpace=wrap;fillColor=#dae8fc;strokeColor=#6c8ebf;" vertex="1" parent="TvrkLMtzig9tNvWBCKO--21">
          <mxGeometry x="270" y="255" width="110" height="50" as="geometry" />
        </mxCell>
        <mxCell id="TvrkLMtzig9tNvWBCKO--39" value="&lt;div style=&quot;border-color: var(--border-color); text-align: left;&quot;&gt;Raum gebucht&lt;br&gt;YESNO2&lt;/div&gt;" style="html=1;whiteSpace=wrap;fillColor=#f8cecc;strokeColor=#b85450;" vertex="1" parent="TvrkLMtzig9tNvWBCKO--21">
          <mxGeometry x="270" y="195" width="110" height="50" as="geometry" />
        </mxCell>
        <mxCell id="TvrkLMtzig9tNvWBCKO--40" value="&lt;div style=&quot;border-color: var(--border-color); text-align: left;&quot;&gt;Verpflegung gebucht&lt;br&gt;YESNO1&lt;/div&gt;" style="html=1;whiteSpace=wrap;fillColor=#f8cecc;strokeColor=#b85450;" vertex="1" parent="TvrkLMtzig9tNvWBCKO--21">
          <mxGeometry x="390" y="255" width="110" height="50" as="geometry" />
        </mxCell>
        <mxCell id="TvrkLMtzig9tNvWBCKO--65" value="Start&lt;br&gt;DATE1" style="html=1;whiteSpace=wrap;fillColor=#d5e8d4;strokeColor=#82b366;" vertex="1" parent="TvrkLMtzig9tNvWBCKO--21">
          <mxGeometry x="150" y="316" width="110" height="50" as="geometry" />
        </mxCell>
        <mxCell id="TvrkLMtzig9tNvWBCKO--72" value="Link zur Veranstaltung?&lt;br&gt;INTERNET2" style="html=1;whiteSpace=wrap;fillColor=#dae8fc;strokeColor=#6c8ebf;" vertex="1" parent="TvrkLMtzig9tNvWBCKO--21">
          <mxGeometry x="270" y="316" width="110" height="50" as="geometry" />
        </mxCell>
        <mxCell id="TvrkLMtzig9tNvWBCKO--73" value="&lt;div style=&quot;border-color: var(--border-color); text-align: left;&quot;&gt;Seminarlink (v)&lt;/div&gt;" style="html=1;whiteSpace=wrap;" vertex="1" parent="TvrkLMtzig9tNvWBCKO--21">
          <mxGeometry x="390" y="316" width="110" height="50" as="geometry" />
        </mxCell>
        <mxCell id="TvrkLMtzig9tNvWBCKO--42" value="" style="group" vertex="1" connectable="0" parent="TvrkLMtzig9tNvWBCKO--18">
          <mxGeometry x="580" y="80" width="440" height="270" as="geometry" />
        </mxCell>
        <mxCell id="TvrkLMtzig9tNvWBCKO--43" value="&lt;b&gt;Preise&lt;/b&gt;" style="rounded=1;whiteSpace=wrap;html=1;verticalAlign=top;" vertex="1" parent="TvrkLMtzig9tNvWBCKO--42">
          <mxGeometry width="440" height="270" as="geometry" />
        </mxCell>
        <mxCell id="TvrkLMtzig9tNvWBCKO--44" value="Bemerkung Mitglieder (12)&lt;br&gt;NOTES9" style="html=1;whiteSpace=wrap;fillColor=#dae8fc;strokeColor=#6c8ebf;" vertex="1" parent="TvrkLMtzig9tNvWBCKO--42">
          <mxGeometry x="165" y="120" width="110" height="50" as="geometry" />
        </mxCell>
        <mxCell id="TvrkLMtzig9tNvWBCKO--45" value="Bemerkung Nicht-Mitglieder (34)&lt;br&gt;NOTES10" style="html=1;whiteSpace=wrap;fillColor=#dae8fc;strokeColor=#6c8ebf;" vertex="1" parent="TvrkLMtzig9tNvWBCKO--42">
          <mxGeometry x="165" y="190" width="110" height="50" as="geometry" />
        </mxCell>
        <mxCell id="TvrkLMtzig9tNvWBCKO--46" value="Presi Nicht Mitglied weitere Person&lt;br&gt;CURRENCY5" style="html=1;whiteSpace=wrap;fillColor=#e1d5e7;strokeColor=#9673a6;" vertex="1" parent="TvrkLMtzig9tNvWBCKO--42">
          <mxGeometry x="165" y="50" width="110" height="50" as="geometry" />
        </mxCell>
        <mxCell id="TvrkLMtzig9tNvWBCKO--47" value="Preis Mitglied weitere Person&lt;br&gt;CURRENCY3" style="html=1;whiteSpace=wrap;fillColor=#e1d5e7;strokeColor=#9673a6;" vertex="1" parent="TvrkLMtzig9tNvWBCKO--42">
          <mxGeometry x="295" y="50" width="110" height="50" as="geometry" />
        </mxCell>
        <mxCell id="TvrkLMtzig9tNvWBCKO--48" value="Preis Nicht Mitglied&lt;br&gt;CURRENCY4" style="html=1;whiteSpace=wrap;fillColor=#e1d5e7;strokeColor=#9673a6;" vertex="1" parent="TvrkLMtzig9tNvWBCKO--42">
          <mxGeometry x="295" y="120" width="110" height="50" as="geometry" />
        </mxCell>
        <mxCell id="TvrkLMtzig9tNvWBCKO--49" value="Preis Mitglied&lt;br&gt;CURRENCY2" style="html=1;whiteSpace=wrap;fillColor=#e1d5e7;strokeColor=#9673a6;" vertex="1" parent="TvrkLMtzig9tNvWBCKO--42">
          <mxGeometry x="35" y="190" width="110" height="50" as="geometry" />
        </mxCell>
        <mxCell id="TvrkLMtzig9tNvWBCKO--50" value="Bruttopreis&lt;br&gt;YESNO6" style="html=1;whiteSpace=wrap;fillColor=#f8cecc;strokeColor=#b85450;" vertex="1" parent="TvrkLMtzig9tNvWBCKO--42">
          <mxGeometry x="35" y="120" width="110" height="50" as="geometry" />
        </mxCell>
        <mxCell id="TvrkLMtzig9tNvWBCKO--51" value="Nettopreis&lt;br&gt;YESNO4" style="html=1;whiteSpace=wrap;fillColor=#f8cecc;strokeColor=#b85450;" vertex="1" parent="TvrkLMtzig9tNvWBCKO--42">
          <mxGeometry x="35" y="50" width="110" height="50" as="geometry" />
        </mxCell>
        <mxCell id="TvrkLMtzig9tNvWBCKO--52" value="" style="group" vertex="1" connectable="0" parent="TvrkLMtzig9tNvWBCKO--18">
          <mxGeometry x="179" y="705" width="390" height="155" as="geometry" />
        </mxCell>
        <mxCell id="TvrkLMtzig9tNvWBCKO--53" value="&lt;b&gt;Allgemeine Informationen&lt;/b&gt;" style="rounded=1;whiteSpace=wrap;html=1;verticalAlign=top;" vertex="1" parent="TvrkLMtzig9tNvWBCKO--52">
          <mxGeometry width="390" height="155" as="geometry" />
        </mxCell>
        <mxCell id="TvrkLMtzig9tNvWBCKO--54" value="Anmerkungen&lt;br&gt;NOTES6" style="html=1;whiteSpace=wrap;fillColor=#cce5ff;strokeColor=#36393d;" vertex="1" parent="TvrkLMtzig9tNvWBCKO--52">
          <mxGeometry x="20" y="30" width="110" height="50" as="geometry" />
        </mxCell>
        <mxCell id="TvrkLMtzig9tNvWBCKO--55" value="Inhalt&lt;br&gt;NOTES5" style="html=1;whiteSpace=wrap;fillColor=#cce5ff;strokeColor=#36393d;" vertex="1" parent="TvrkLMtzig9tNvWBCKO--52">
          <mxGeometry x="20" y="90" width="110" height="50" as="geometry" />
        </mxCell>
        <mxCell id="TvrkLMtzig9tNvWBCKO--56" value="Leitung (Tabelle)&lt;br&gt;Daten aus FREEXY" style="html=1;whiteSpace=wrap;fillColor=#d80073;strokeColor=#A50040;fontColor=#ffffff;" vertex="1" parent="TvrkLMtzig9tNvWBCKO--52">
          <mxGeometry x="260" y="30" width="110" height="110" as="geometry" />
        </mxCell>
        <mxCell id="TvrkLMtzig9tNvWBCKO--57" value="Zielgruppe&lt;br&gt;NOTES3" style="html=1;whiteSpace=wrap;fillColor=#cce5ff;strokeColor=#36393d;" vertex="1" parent="TvrkLMtzig9tNvWBCKO--52">
          <mxGeometry x="140" y="90" width="110" height="50" as="geometry" />
        </mxCell>
        <mxCell id="TvrkLMtzig9tNvWBCKO--58" value="Ziele -&amp;gt; Beschreibung&lt;br&gt;NOTES4" style="html=1;whiteSpace=wrap;fillColor=#cce5ff;strokeColor=#36393d;" vertex="1" parent="TvrkLMtzig9tNvWBCKO--52">
          <mxGeometry x="140" y="30" width="110" height="50" as="geometry" />
        </mxCell>
        <mxCell id="TvrkLMtzig9tNvWBCKO--59" value="" style="group" vertex="1" connectable="0" parent="TvrkLMtzig9tNvWBCKO--18">
          <mxGeometry x="30" y="80" width="520" height="610" as="geometry" />
        </mxCell>
        <mxCell id="TvrkLMtzig9tNvWBCKO--60" value="&lt;b&gt;Veranstaltunginformationen&lt;/b&gt;" style="rounded=1;whiteSpace=wrap;html=1;verticalAlign=top;" vertex="1" parent="TvrkLMtzig9tNvWBCKO--59">
          <mxGeometry width="520" height="610" as="geometry" />
        </mxCell>
        <mxCell id="TvrkLMtzig9tNvWBCKO--61" value="Seminarnummer&lt;br&gt;TEXT8" style="html=1;whiteSpace=wrap;fillColor=#dae8fc;strokeColor=#6c8ebf;" vertex="1" parent="TvrkLMtzig9tNvWBCKO--59">
          <mxGeometry x="30" y="40" width="110" height="50" as="geometry" />
        </mxCell>
        <mxCell id="TvrkLMtzig9tNvWBCKO--62" value="Titel&lt;br&gt;NOTES2" style="html=1;whiteSpace=wrap;fillColor=#dae8fc;strokeColor=#6c8ebf;" vertex="1" parent="TvrkLMtzig9tNvWBCKO--59">
          <mxGeometry x="30" y="100" width="110" height="50" as="geometry" />
        </mxCell>
        <mxCell id="TvrkLMtzig9tNvWBCKO--63" value="Typ&lt;br&gt;TEXT7" style="html=1;whiteSpace=wrap;fillColor=#dae8fc;strokeColor=#6c8ebf;" vertex="1" parent="TvrkLMtzig9tNvWBCKO--59">
          <mxGeometry x="30" y="160" width="110" height="50" as="geometry" />
        </mxCell>
        <mxCell id="TvrkLMtzig9tNvWBCKO--64" value="Bereich&lt;br&gt;TEXT6" style="html=1;whiteSpace=wrap;fillColor=#dae8fc;strokeColor=#6c8ebf;" vertex="1" parent="TvrkLMtzig9tNvWBCKO--59">
          <mxGeometry x="30" y="220" width="110" height="50" as="geometry" />
        </mxCell>
        <mxCell id="TvrkLMtzig9tNvWBCKO--66" value="Termininfo&lt;br&gt;NOTES8" style="html=1;whiteSpace=wrap;fillColor=#dae8fc;strokeColor=#6c8ebf;" vertex="1" parent="TvrkLMtzig9tNvWBCKO--59">
          <mxGeometry x="150" y="40" width="110" height="50" as="geometry" />
        </mxCell>
        <mxCell id="TvrkLMtzig9tNvWBCKO--67" value="Uhrzeit&lt;br&gt;TEXT5" style="html=1;whiteSpace=wrap;fillColor=#dae8fc;strokeColor=#6c8ebf;" vertex="1" parent="TvrkLMtzig9tNvWBCKO--59">
          <mxGeometry x="150" y="100" width="110" height="50" as="geometry" />
        </mxCell>
        <mxCell id="TvrkLMtzig9tNvWBCKO--68" value="Dauer&lt;br&gt;TEXT9" style="html=1;whiteSpace=wrap;fillColor=#dae8fc;strokeColor=#6c8ebf;" vertex="1" parent="TvrkLMtzig9tNvWBCKO--59">
          <mxGeometry x="150" y="160" width="110" height="50" as="geometry" />
        </mxCell>
        <mxCell id="TvrkLMtzig9tNvWBCKO--69" value="Teilnehmerzahl Min.&lt;br&gt;NUMBER6" style="html=1;whiteSpace=wrap;fillColor=#e1d5e7;strokeColor=#9673a6;" vertex="1" parent="TvrkLMtzig9tNvWBCKO--59">
          <mxGeometry x="150" y="280" width="110" height="50" as="geometry" />
        </mxCell>
        <mxCell id="TvrkLMtzig9tNvWBCKO--70" value="Teilnehmerzahl Max.&lt;br&gt;NUMBER7" style="html=1;whiteSpace=wrap;fillColor=#e1d5e7;strokeColor=#9673a6;" vertex="1" parent="TvrkLMtzig9tNvWBCKO--59">
          <mxGeometry x="30" y="280" width="110" height="50" as="geometry" />
        </mxCell>
        <mxCell id="TvrkLMtzig9tNvWBCKO--71" value="Veranstaltungsort&lt;br&gt;FK4 (Adressen)" style="html=1;whiteSpace=wrap;fillColor=#ffe6cc;strokeColor=#d79b00;" vertex="1" parent="TvrkLMtzig9tNvWBCKO--59">
          <mxGeometry x="30" y="342.5" width="110" height="50" as="geometry" />
        </mxCell>
        <mxCell id="TvrkLMtzig9tNvWBCKO--75" value="Catering&lt;br&gt;FK5 (Adressen)" style="html=1;whiteSpace=wrap;fillColor=#ffe6cc;strokeColor=#d79b00;" vertex="1" parent="TvrkLMtzig9tNvWBCKO--59">
          <mxGeometry x="150" y="460" width="110" height="50" as="geometry" />
        </mxCell>
        <mxCell id="TvrkLMtzig9tNvWBCKO--76" value="Veröffentlichung im Internet&lt;br&gt;YESNO3" style="html=1;whiteSpace=wrap;fillColor=#f8cecc;strokeColor=#b85450;" vertex="1" parent="TvrkLMtzig9tNvWBCKO--59">
          <mxGeometry x="30" y="460" width="110" height="50" as="geometry" />
        </mxCell>
        <mxCell id="TvrkLMtzig9tNvWBCKO--77" value="Ansprechpartner&lt;br&gt;FK7 (Adressen)" style="html=1;whiteSpace=wrap;labelBackgroundColor=none;labelBorderColor=none;fillColor=#ffe6cc;strokeColor=#d79b00;" vertex="1" parent="TvrkLMtzig9tNvWBCKO--59">
          <mxGeometry x="150" y="520" width="110" height="50" as="geometry" />
        </mxCell>
        <mxCell id="TvrkLMtzig9tNvWBCKO--78" value="Sachbearbeiter&lt;br&gt;FK9 (Adressen)" style="html=1;whiteSpace=wrap;fillColor=#ffe6cc;strokeColor=#d79b00;" vertex="1" parent="TvrkLMtzig9tNvWBCKO--59">
          <mxGeometry x="30" y="520" width="110" height="50" as="geometry" />
        </mxCell>
        <mxCell id="TvrkLMtzig9tNvWBCKO--79" value="Status&lt;br&gt;TEXT4&lt;br&gt;(Wird automatisch geschrieben aus Prototype)" style="html=1;whiteSpace=wrap;fillColor=#dae8fc;strokeColor=#6c8ebf;" vertex="1" parent="TvrkLMtzig9tNvWBCKO--59">
          <mxGeometry x="390" y="50" width="110" height="90" as="geometry" />
        </mxCell>
        <mxCell id="TvrkLMtzig9tNvWBCKO--86" value="Dozent (Tabelle)&lt;br&gt;Daten aus FREE-Dozent" style="html=1;whiteSpace=wrap;fillColor=#d80073;strokeColor=#A50040;fontColor=#ffffff;" vertex="1" parent="TvrkLMtzig9tNvWBCKO--59">
          <mxGeometry x="270" y="460" width="110" height="110" as="geometry" />
        </mxCell>
        <mxCell id="TvrkLMtzig9tNvWBCKO--80" value="&lt;b&gt;Notizien und Erklärungen&lt;/b&gt;&lt;br&gt;&lt;br&gt;&lt;div style=&quot;&quot;&gt;&lt;div style=&quot;text-align: left;&quot;&gt;&lt;span style=&quot;background-color: initial;&quot;&gt;Ort/Raum und Referent sind die einzigeln Felder Verlinkt mit dem xxx Datenbanken, wofür brauchen wir diese xxx Datenbanken und diese Verlinkungen ist niewo dokumentiert und Ihre Nutzung ist unbekannt.&lt;/span&gt;&lt;/div&gt;&lt;br&gt;&lt;b&gt;Änderungen&lt;/b&gt;&lt;br&gt;&lt;div style=&quot;text-align: left;&quot;&gt;&lt;br&gt;1. Status: Status wird automatisch verwaltet beim Prototype. Das wird nur Falls der Veranstaltung storniert wird.&lt;br&gt;&lt;br&gt;2. Funktion &quot;Veranstaltung Stornieren&quot; im Prototype. Am Anfang wird ein Button in Cobra hinzugefügt und dann wird die Storno im Prototype verwaltet (Mit automatische Emails zu den Teilnehmer und auch Rückstattungen).&lt;br&gt;&lt;br&gt;3. Leitung: Das Feld wird gelöscht und werde eine neue Tabelle (Wie bei Beratungsempfänger) in die Maske hintergelegt, damit die Leitung werden mit dem Addressliste verknupft und nicht bei einfacher Text.&lt;br&gt;&lt;br&gt;4. Dozent: wie in Punkt 3, es wird eine neue Bruchentabelle erstellt&lt;/div&gt;&lt;/div&gt;" style="rounded=0;whiteSpace=wrap;html=1;verticalAlign=top;" vertex="1" parent="TvrkLMtzig9tNvWBCKO--18">
          <mxGeometry x="1130" y="80" width="270" height="760" as="geometry" />
        </mxCell>
        <mxCell id="TvrkLMtzig9tNvWBCKO--81" style="edgeStyle=orthogonalEdgeStyle;rounded=0;orthogonalLoop=1;jettySize=auto;html=1;exitX=0;exitY=0;exitDx=0;exitDy=232.50000000000003;exitPerimeter=0;entryX=1;entryY=0.361;entryDx=0;entryDy=0;entryPerimeter=0;fillColor=#ffe6cc;strokeColor=#d79b00;shape=flexArrow;" edge="1" parent="1" source="TvrkLMtzig9tNvWBCKO--19" target="TvrkLMtzig9tNvWBCKO--1">
          <mxGeometry relative="1" as="geometry">
            <Array as="points">
              <mxPoint x="140" y="413" />
              <mxPoint x="140" y="410" />
            </Array>
          </mxGeometry>
        </mxCell>
        <mxCell id="TvrkLMtzig9tNvWBCKO--82" style="edgeStyle=orthogonalEdgeStyle;rounded=0;orthogonalLoop=1;jettySize=auto;html=1;entryX=0.145;entryY=1;entryDx=0;entryDy=-4.35;entryPerimeter=0;shape=flexArrow;fillColor=#ffe6cc;strokeColor=#d79b00;" edge="1" parent="1" source="TvrkLMtzig9tNvWBCKO--6" target="TvrkLMtzig9tNvWBCKO--1">
          <mxGeometry relative="1" as="geometry" />
        </mxCell>
        <mxCell id="TvrkLMtzig9tNvWBCKO--85" value="Bruchentabelle&lt;br&gt;Neue Leitung Tabelle&lt;br&gt;FREEXY" style="shape=cylinder3;whiteSpace=wrap;html=1;boundedLbl=1;backgroundOutline=1;size=15;" vertex="1" parent="1">
          <mxGeometry x="-20" y="750" width="140" height="110" as="geometry" />
        </mxCell>
        <mxCell id="TvrkLMtzig9tNvWBCKO--87" value="Bruchentabelle&lt;br&gt;Neue Dozent Tabelle&lt;br&gt;FREE-Dozent" style="shape=cylinder3;whiteSpace=wrap;html=1;boundedLbl=1;backgroundOutline=1;size=15;" vertex="1" parent="1">
          <mxGeometry x="-20" y="610" width="140" height="110" as="geometry" />
        </mxCell>
      </root>
    </mxGraphModel>
  </diagram>
</mxfile>
